<mxfile host="Electron" agent="Mozilla/5.0 (Windows NT 10.0; Win64; x64) AppleWebKit/537.36 (KHTML, like Gecko) draw.io/27.0.9 Chrome/134.0.6998.205 Electron/35.4.0 Safari/537.36" version="27.0.9">
  <diagram name="Page-1" id="QP8NUL7tgWp9apwwR5Bp">
    <mxGraphModel dx="744" dy="446" grid="1" gridSize="10" guides="1" tooltips="1" connect="1" arrows="1" fold="1" page="1" pageScale="1" pageWidth="850" pageHeight="1100" math="0" shadow="0">
      <root>
        <mxCell id="0" />
        <mxCell id="1" parent="0" />
        <mxCell id="OOApncT5bJwR6yC-GYGs-46" style="edgeStyle=orthogonalEdgeStyle;rounded=0;orthogonalLoop=1;jettySize=auto;html=1;exitX=0.5;exitY=0.5;exitDx=0;exitDy=0;exitPerimeter=0;entryX=0;entryY=0.5;entryDx=0;entryDy=0;" edge="1" parent="1" source="OOApncT5bJwR6yC-GYGs-6" target="OOApncT5bJwR6yC-GYGs-33">
          <mxGeometry relative="1" as="geometry">
            <Array as="points">
              <mxPoint x="85" y="200" />
            </Array>
          </mxGeometry>
        </mxCell>
        <mxCell id="OOApncT5bJwR6yC-GYGs-48" style="edgeStyle=orthogonalEdgeStyle;rounded=0;orthogonalLoop=1;jettySize=auto;html=1;exitX=0.5;exitY=0.5;exitDx=0;exitDy=0;exitPerimeter=0;entryX=0;entryY=0.5;entryDx=0;entryDy=0;" edge="1" parent="1" source="OOApncT5bJwR6yC-GYGs-6" target="OOApncT5bJwR6yC-GYGs-32">
          <mxGeometry relative="1" as="geometry">
            <Array as="points">
              <mxPoint x="20" y="310" />
              <mxPoint x="20" y="780" />
            </Array>
          </mxGeometry>
        </mxCell>
        <mxCell id="OOApncT5bJwR6yC-GYGs-49" style="edgeStyle=orthogonalEdgeStyle;rounded=0;orthogonalLoop=1;jettySize=auto;html=1;exitX=0.5;exitY=0.5;exitDx=0;exitDy=0;exitPerimeter=0;entryX=0;entryY=0.5;entryDx=0;entryDy=0;" edge="1" parent="1" source="OOApncT5bJwR6yC-GYGs-6" target="OOApncT5bJwR6yC-GYGs-28">
          <mxGeometry relative="1" as="geometry">
            <Array as="points">
              <mxPoint x="85" y="670" />
            </Array>
          </mxGeometry>
        </mxCell>
        <mxCell id="OOApncT5bJwR6yC-GYGs-6" value="Colaborador" style="shape=umlActor;verticalLabelPosition=bottom;verticalAlign=top;html=1;outlineConnect=0;" vertex="1" parent="1">
          <mxGeometry x="70" y="280" width="30" height="60" as="geometry" />
        </mxCell>
        <mxCell id="OOApncT5bJwR6yC-GYGs-15" value="Sistema de Processamento de Salário" style="swimlane;whiteSpace=wrap;html=1;" vertex="1" parent="1">
          <mxGeometry x="195" y="9" width="460" height="911" as="geometry">
            <mxRectangle x="330" y="170" width="240" height="30" as="alternateBounds" />
          </mxGeometry>
        </mxCell>
        <mxCell id="OOApncT5bJwR6yC-GYGs-21" value="Cadastrar Colaborador" style="ellipse;whiteSpace=wrap;html=1;" vertex="1" parent="OOApncT5bJwR6yC-GYGs-15">
          <mxGeometry x="175" y="40" width="100" height="60" as="geometry" />
        </mxCell>
        <mxCell id="OOApncT5bJwR6yC-GYGs-22" value="Actualizar Colaborador" style="ellipse;whiteSpace=wrap;html=1;" vertex="1" parent="OOApncT5bJwR6yC-GYGs-15">
          <mxGeometry x="175" y="110" width="100" height="60" as="geometry" />
        </mxCell>
        <mxCell id="OOApncT5bJwR6yC-GYGs-23" value="Desactivar&amp;nbsp;&lt;div&gt;&lt;span style=&quot;background-color: transparent; color: light-dark(rgb(0, 0, 0), rgb(255, 255, 255));&quot;&gt;Colaborador&lt;/span&gt;&lt;/div&gt;" style="ellipse;whiteSpace=wrap;html=1;" vertex="1" parent="OOApncT5bJwR6yC-GYGs-15">
          <mxGeometry x="175" y="180" width="100" height="60" as="geometry" />
        </mxCell>
        <mxCell id="OOApncT5bJwR6yC-GYGs-24" value="Imprimir&lt;br&gt;&lt;div&gt;&lt;span style=&quot;background-color: transparent; color: light-dark(rgb(0, 0, 0), rgb(255, 255, 255));&quot;&gt;Colaborador&lt;/span&gt;&lt;/div&gt;" style="ellipse;whiteSpace=wrap;html=1;" vertex="1" parent="OOApncT5bJwR6yC-GYGs-15">
          <mxGeometry x="175" y="321" width="100" height="60" as="geometry" />
        </mxCell>
        <mxCell id="OOApncT5bJwR6yC-GYGs-25" value="Criar&lt;br&gt;&lt;div&gt;&lt;span style=&quot;background-color: transparent; color: light-dark(rgb(0, 0, 0), rgb(255, 255, 255));&quot;&gt;Função&lt;/span&gt;&lt;/div&gt;" style="ellipse;whiteSpace=wrap;html=1;" vertex="1" parent="OOApncT5bJwR6yC-GYGs-15">
          <mxGeometry x="175" y="401" width="100" height="60" as="geometry" />
        </mxCell>
        <mxCell id="OOApncT5bJwR6yC-GYGs-26" value="Eliminar&lt;br&gt;&lt;div&gt;&lt;span style=&quot;background-color: transparent; color: light-dark(rgb(0, 0, 0), rgb(255, 255, 255));&quot;&gt;Função&lt;/span&gt;&lt;/div&gt;" style="ellipse;whiteSpace=wrap;html=1;" vertex="1" parent="OOApncT5bJwR6yC-GYGs-15">
          <mxGeometry x="175" y="471" width="100" height="60" as="geometry" />
        </mxCell>
        <mxCell id="OOApncT5bJwR6yC-GYGs-27" value="Imprimir&lt;br&gt;&lt;div&gt;&lt;span style=&quot;background-color: transparent; color: light-dark(rgb(0, 0, 0), rgb(255, 255, 255));&quot;&gt;Função&lt;/span&gt;&lt;/div&gt;" style="ellipse;whiteSpace=wrap;html=1;" vertex="1" parent="OOApncT5bJwR6yC-GYGs-15">
          <mxGeometry x="175" y="541" width="100" height="60" as="geometry" />
        </mxCell>
        <mxCell id="OOApncT5bJwR6yC-GYGs-28" value="Gerar&lt;br&gt;&lt;div&gt;Relatório&lt;/div&gt;" style="ellipse;whiteSpace=wrap;html=1;" vertex="1" parent="OOApncT5bJwR6yC-GYGs-15">
          <mxGeometry x="20" y="631" width="100" height="60" as="geometry" />
        </mxCell>
        <mxCell id="OOApncT5bJwR6yC-GYGs-29" value="Pesquisar&lt;br&gt;&lt;div&gt;Colaborador&lt;/div&gt;" style="ellipse;whiteSpace=wrap;html=1;" vertex="1" parent="OOApncT5bJwR6yC-GYGs-15">
          <mxGeometry x="175" y="251" width="100" height="60" as="geometry" />
        </mxCell>
        <mxCell id="OOApncT5bJwR6yC-GYGs-30" value="Exportar&lt;br&gt;&lt;div&gt;Relatório de Salários&lt;/div&gt;" style="ellipse;whiteSpace=wrap;html=1;" vertex="1" parent="OOApncT5bJwR6yC-GYGs-15">
          <mxGeometry x="175" y="631" width="100" height="60" as="geometry" />
        </mxCell>
        <mxCell id="OOApncT5bJwR6yC-GYGs-31" value="Emitir&amp;nbsp;&lt;div&gt;Holerite&lt;/div&gt;" style="ellipse;whiteSpace=wrap;html=1;" vertex="1" parent="OOApncT5bJwR6yC-GYGs-15">
          <mxGeometry x="175" y="741" width="100" height="60" as="geometry" />
        </mxCell>
        <mxCell id="OOApncT5bJwR6yC-GYGs-32" value="Listar&lt;div&gt;Holerite&lt;/div&gt;" style="ellipse;whiteSpace=wrap;html=1;" vertex="1" parent="OOApncT5bJwR6yC-GYGs-15">
          <mxGeometry x="20" y="741" width="100" height="60" as="geometry" />
        </mxCell>
        <mxCell id="OOApncT5bJwR6yC-GYGs-33" value="Gerir&lt;div&gt;Colaborador&lt;/div&gt;" style="ellipse;whiteSpace=wrap;html=1;" vertex="1" parent="OOApncT5bJwR6yC-GYGs-15">
          <mxGeometry x="20" y="161" width="100" height="60" as="geometry" />
        </mxCell>
        <mxCell id="OOApncT5bJwR6yC-GYGs-34" value="Validar&lt;div&gt;Email&lt;/div&gt;" style="ellipse;whiteSpace=wrap;html=1;" vertex="1" parent="OOApncT5bJwR6yC-GYGs-15">
          <mxGeometry x="335" y="61" width="100" height="60" as="geometry" />
        </mxCell>
        <mxCell id="OOApncT5bJwR6yC-GYGs-36" value="Validar&lt;div&gt;Existência de&lt;/div&gt;&lt;div&gt;Função&lt;/div&gt;" style="ellipse;whiteSpace=wrap;html=1;" vertex="1" parent="OOApncT5bJwR6yC-GYGs-15">
          <mxGeometry x="330" y="191" width="100" height="60" as="geometry" />
        </mxCell>
        <mxCell id="OOApncT5bJwR6yC-GYGs-37" value="Impedir Eliminação" style="ellipse;whiteSpace=wrap;html=1;" vertex="1" parent="OOApncT5bJwR6yC-GYGs-15">
          <mxGeometry x="330" y="371" width="100" height="60" as="geometry" />
        </mxCell>
        <mxCell id="OOApncT5bJwR6yC-GYGs-38" value="Gerir&lt;div&gt;Função&lt;/div&gt;" style="ellipse;whiteSpace=wrap;html=1;" vertex="1" parent="OOApncT5bJwR6yC-GYGs-15">
          <mxGeometry x="10" y="461" width="100" height="60" as="geometry" />
        </mxCell>
        <mxCell id="OOApncT5bJwR6yC-GYGs-52" value="&amp;lt;&amp;lt;incluir&lt;span style=&quot;background-color: transparent; color: light-dark(rgb(0, 0, 0), rgb(255, 255, 255));&quot;&gt;&amp;gt;&amp;gt;&lt;/span&gt;" style="html=1;verticalAlign=bottom;labelBackgroundColor=none;endArrow=open;endFill=0;dashed=1;rounded=0;entryX=0;entryY=0.5;entryDx=0;entryDy=0;exitX=1;exitY=0.5;exitDx=0;exitDy=0;" edge="1" parent="OOApncT5bJwR6yC-GYGs-15" source="OOApncT5bJwR6yC-GYGs-21" target="OOApncT5bJwR6yC-GYGs-34">
          <mxGeometry width="160" relative="1" as="geometry">
            <mxPoint x="45" y="221" as="sourcePoint" />
            <mxPoint x="205" y="221" as="targetPoint" />
          </mxGeometry>
        </mxCell>
        <mxCell id="OOApncT5bJwR6yC-GYGs-53" value="&amp;lt;&amp;lt;incluir&lt;span style=&quot;background-color: transparent; color: light-dark(rgb(0, 0, 0), rgb(255, 255, 255));&quot;&gt;&amp;gt;&amp;gt;&lt;/span&gt;" style="html=1;verticalAlign=bottom;labelBackgroundColor=none;endArrow=open;endFill=0;dashed=1;rounded=0;exitX=0.982;exitY=0.366;exitDx=0;exitDy=0;exitPerimeter=0;" edge="1" parent="OOApncT5bJwR6yC-GYGs-15" source="OOApncT5bJwR6yC-GYGs-22" target="OOApncT5bJwR6yC-GYGs-34">
          <mxGeometry width="160" relative="1" as="geometry">
            <mxPoint x="285" y="80" as="sourcePoint" />
            <mxPoint x="330" y="136" as="targetPoint" />
          </mxGeometry>
        </mxCell>
        <mxCell id="OOApncT5bJwR6yC-GYGs-56" value="&amp;lt;&amp;lt;incluir&lt;span style=&quot;background-color: transparent; color: light-dark(rgb(0, 0, 0), rgb(255, 255, 255));&quot;&gt;&amp;gt;&amp;gt;&lt;/span&gt;" style="html=1;verticalAlign=bottom;labelBackgroundColor=none;endArrow=open;endFill=0;dashed=1;rounded=0;exitX=1;exitY=1;exitDx=0;exitDy=0;" edge="1" parent="OOApncT5bJwR6yC-GYGs-15" source="OOApncT5bJwR6yC-GYGs-21" target="OOApncT5bJwR6yC-GYGs-36">
          <mxGeometry x="0.359" y="-14" width="160" relative="1" as="geometry">
            <mxPoint x="285" y="80" as="sourcePoint" />
            <mxPoint x="345" y="101" as="targetPoint" />
            <mxPoint as="offset" />
          </mxGeometry>
        </mxCell>
        <mxCell id="OOApncT5bJwR6yC-GYGs-58" value="&amp;lt;&amp;lt;estender&amp;gt;&amp;gt;" style="html=1;verticalAlign=bottom;labelBackgroundColor=none;endArrow=open;endFill=0;dashed=1;rounded=0;exitX=0.406;exitY=1.016;exitDx=0;exitDy=0;exitPerimeter=0;entryX=1;entryY=0.5;entryDx=0;entryDy=0;" edge="1" parent="OOApncT5bJwR6yC-GYGs-15" source="OOApncT5bJwR6yC-GYGs-37" target="OOApncT5bJwR6yC-GYGs-26">
          <mxGeometry width="160" relative="1" as="geometry">
            <mxPoint x="300" y="430.57" as="sourcePoint" />
            <mxPoint x="460" y="430.57" as="targetPoint" />
          </mxGeometry>
        </mxCell>
        <mxCell id="OOApncT5bJwR6yC-GYGs-59" value="Calcular&amp;nbsp;&lt;div&gt;Salário Bruto&lt;/div&gt;" style="ellipse;whiteSpace=wrap;html=1;" vertex="1" parent="OOApncT5bJwR6yC-GYGs-15">
          <mxGeometry x="345" y="610" width="100" height="60" as="geometry" />
        </mxCell>
        <mxCell id="OOApncT5bJwR6yC-GYGs-60" value="Calcular&amp;nbsp;&lt;div&gt;IRT&lt;/div&gt;" style="ellipse;whiteSpace=wrap;html=1;" vertex="1" parent="OOApncT5bJwR6yC-GYGs-15">
          <mxGeometry x="345" y="680" width="100" height="60" as="geometry" />
        </mxCell>
        <mxCell id="OOApncT5bJwR6yC-GYGs-61" value="Calcular&amp;nbsp;&lt;div&gt;INSS&lt;/div&gt;" style="ellipse;whiteSpace=wrap;html=1;" vertex="1" parent="OOApncT5bJwR6yC-GYGs-15">
          <mxGeometry x="345" y="750" width="100" height="60" as="geometry" />
        </mxCell>
        <mxCell id="OOApncT5bJwR6yC-GYGs-62" value="Calcular&amp;nbsp;&lt;div&gt;Salário Líquido&lt;/div&gt;" style="ellipse;whiteSpace=wrap;html=1;" vertex="1" parent="OOApncT5bJwR6yC-GYGs-15">
          <mxGeometry x="345" y="820" width="100" height="60" as="geometry" />
        </mxCell>
        <mxCell id="OOApncT5bJwR6yC-GYGs-63" value="&amp;lt;&amp;lt;incluir&amp;gt;&amp;gt;" style="html=1;verticalAlign=bottom;labelBackgroundColor=none;endArrow=open;endFill=0;dashed=1;rounded=0;exitX=0.7;exitY=0;exitDx=0;exitDy=0;exitPerimeter=0;" edge="1" parent="OOApncT5bJwR6yC-GYGs-15" source="OOApncT5bJwR6yC-GYGs-31" target="OOApncT5bJwR6yC-GYGs-59">
          <mxGeometry width="160" relative="1" as="geometry">
            <mxPoint x="75" y="731" as="sourcePoint" />
            <mxPoint x="235" y="731" as="targetPoint" />
          </mxGeometry>
        </mxCell>
        <mxCell id="OOApncT5bJwR6yC-GYGs-64" value="&amp;lt;&amp;lt;incluir&amp;gt;&amp;gt;" style="html=1;verticalAlign=bottom;labelBackgroundColor=none;endArrow=open;endFill=0;dashed=1;rounded=0;exitX=0.964;exitY=0.226;exitDx=0;exitDy=0;exitPerimeter=0;entryX=0.099;entryY=0.721;entryDx=0;entryDy=0;entryPerimeter=0;" edge="1" parent="OOApncT5bJwR6yC-GYGs-15" source="OOApncT5bJwR6yC-GYGs-31" target="OOApncT5bJwR6yC-GYGs-60">
          <mxGeometry width="160" relative="1" as="geometry">
            <mxPoint x="255" y="751" as="sourcePoint" />
            <mxPoint x="372" y="672" as="targetPoint" />
          </mxGeometry>
        </mxCell>
        <mxCell id="OOApncT5bJwR6yC-GYGs-65" value="&amp;lt;&amp;lt;incluir&amp;gt;&amp;gt;" style="html=1;verticalAlign=bottom;labelBackgroundColor=none;endArrow=open;endFill=0;dashed=1;rounded=0;exitX=0.964;exitY=0.226;exitDx=0;exitDy=0;exitPerimeter=0;" edge="1" parent="OOApncT5bJwR6yC-GYGs-15" target="OOApncT5bJwR6yC-GYGs-61">
          <mxGeometry width="160" relative="1" as="geometry">
            <mxPoint x="281" y="765" as="sourcePoint" />
            <mxPoint x="365" y="733" as="targetPoint" />
          </mxGeometry>
        </mxCell>
        <mxCell id="OOApncT5bJwR6yC-GYGs-51" style="edgeStyle=orthogonalEdgeStyle;rounded=0;orthogonalLoop=1;jettySize=auto;html=1;exitX=0.5;exitY=0.5;exitDx=0;exitDy=0;exitPerimeter=0;entryX=0.006;entryY=0.617;entryDx=0;entryDy=0;entryPerimeter=0;" edge="1" parent="1" source="OOApncT5bJwR6yC-GYGs-6" target="OOApncT5bJwR6yC-GYGs-38">
          <mxGeometry relative="1" as="geometry" />
        </mxCell>
      </root>
    </mxGraphModel>
  </diagram>
</mxfile>
